<svg xmlns="http://www.w3.org/2000/svg" xmlns:xlink="http://www.w3.org/1999/xlink" width="250" zoomAndPan="magnify" viewBox="0 0 187.5 112.499997" height="150" preserveAspectRatio="xMidYMid meet" version="1.0"><defs><g/></defs><g fill="#f6f4f0" fill-opacity="1"><g transform="translate(43.44603, 67.201323)"><g><path d="M 19.65625 1.859375 L 2.4375 1.859375 L 2.4375 0.578125 L 1.15625 0.578125 L 1.15625 -42.328125 L 18.375 -42.328125 L 18.3125 -41.046875 L 19.65625 -41.046875 L 19.53125 -35.671875 C 20.382812 -37.679688 21.613281 -39.347656 23.21875 -40.671875 C 24.820312 -41.992188 26.925781 -42.632812 29.53125 -42.59375 C 31.53125 -42.550781 33.222656 -42.195312 34.609375 -41.53125 C 36.003906 -40.875 37.128906 -39.988281 37.984375 -38.875 C 38.835938 -38.195312 39.5625 -37.375 40.15625 -36.40625 C 40.75 -35.445312 41.195312 -34.410156 41.5 -33.296875 C 41.96875 -35.054688 42.648438 -36.640625 43.546875 -38.046875 C 44.441406 -39.453125 45.601562 -40.570312 47.03125 -41.40625 C 48.46875 -42.238281 50.234375 -42.632812 52.328125 -42.59375 C 54.335938 -42.550781 56.035156 -42.207031 57.421875 -41.5625 C 58.804688 -40.925781 59.925781 -40.070312 60.78125 -39 C 62.226562 -37.8125 63.269531 -36.304688 63.90625 -34.484375 C 64.550781 -32.671875 64.945312 -30.75 65.09375 -28.71875 C 65.25 -26.695312 65.328125 -24.742188 65.328125 -22.859375 L 65.328125 1.859375 L 48.421875 1.859375 L 48.421875 0.578125 L 47.140625 0.578125 L 47.140625 -21.140625 C 47.140625 -21.816406 47.007812 -22.410156 46.75 -22.921875 C 46.40625 -23.097656 46.019531 -23.1875 45.59375 -23.1875 C 44.875 -23.1875 44.191406 -22.90625 43.546875 -22.34375 C 42.910156 -21.789062 42.59375 -20.960938 42.59375 -19.859375 L 42.59375 1.859375 L 25.6875 1.859375 L 25.6875 0.578125 L 24.40625 0.578125 L 24.40625 -20.5625 C 24.40625 -21.457031 24.234375 -22.203125 23.890625 -22.796875 C 23.460938 -23.015625 23.054688 -23.125 22.671875 -23.125 C 21.941406 -23.125 21.253906 -22.800781 20.609375 -22.15625 C 19.972656 -21.519531 19.65625 -20.582031 19.65625 -19.34375 Z M 17.734375 -20.625 C 17.734375 -22.113281 18.097656 -23.222656 18.828125 -23.953125 C 19.554688 -24.679688 20.410156 -25.046875 21.390625 -25.046875 C 22.367188 -25.046875 23.222656 -24.671875 23.953125 -23.921875 C 24.679688 -23.171875 25.046875 -22.050781 25.046875 -20.5625 L 25.046875 -0.0625 L 40.671875 -0.0625 L 40.671875 -21.140625 C 40.671875 -22.421875 41.03125 -23.390625 41.75 -24.046875 C 42.476562 -24.710938 43.300781 -25.054688 44.21875 -25.078125 C 45.132812 -25.097656 45.957031 -24.785156 46.6875 -24.140625 C 47.414062 -23.503906 47.78125 -22.503906 47.78125 -21.140625 L 47.78125 -0.0625 L 63.40625 -0.0625 L 63.40625 -24.140625 C 63.40625 -26.023438 63.316406 -27.988281 63.140625 -30.03125 C 62.972656 -32.082031 62.546875 -33.992188 61.859375 -35.765625 C 61.179688 -37.535156 60.09375 -39 58.59375 -40.15625 C 57.101562 -41.3125 55.015625 -41.910156 52.328125 -41.953125 C 50.234375 -41.992188 48.492188 -41.597656 47.109375 -40.765625 C 45.722656 -39.929688 44.613281 -38.796875 43.78125 -37.359375 C 42.945312 -35.929688 42.335938 -34.332031 41.953125 -32.5625 C 41.566406 -30.789062 41.351562 -28.988281 41.3125 -27.15625 L 40.671875 -27.15625 C 40.628906 -28.90625 40.445312 -30.632812 40.125 -32.34375 C 39.800781 -34.050781 39.253906 -35.617188 38.484375 -37.046875 C 37.722656 -38.484375 36.625 -39.648438 35.1875 -40.546875 C 33.757812 -41.441406 31.875 -41.910156 29.53125 -41.953125 C 27.476562 -41.992188 25.742188 -41.597656 24.328125 -40.765625 C 22.921875 -39.929688 21.800781 -38.796875 20.96875 -37.359375 C 20.132812 -35.929688 19.535156 -34.332031 19.171875 -32.5625 C 18.816406 -30.789062 18.617188 -28.988281 18.578125 -27.15625 L 17.734375 -27.15625 L 17.734375 -41.6875 L 1.796875 -41.6875 L 1.796875 -0.0625 L 17.734375 -0.0625 Z M 17.734375 -20.625 "/></g></g></g><g fill="#f6f4f0" fill-opacity="1"><g transform="translate(109.342791, 67.201323)"><g><path d="M 9.421875 -22.734375 C 8.265625 -22.566406 7.160156 -22.460938 6.109375 -22.421875 C 5.066406 -22.378906 4.203125 -22.378906 3.515625 -22.421875 L 2.3125 -22.421875 L 2.3125 -23.703125 L 1.03125 -23.703125 L 1.03125 -42.265625 L 33.8125 -42.265625 L 33.8125 -40.984375 L 35.09375 -40.984375 L 35.09375 -22.484375 L 27.734375 -22.484375 C 27.734375 -18.460938 27.742188 -14.390625 27.765625 -10.265625 C 27.785156 -6.148438 27.796875 -2.085938 27.796875 1.921875 L 10.765625 1.921875 L 10.765625 0.640625 L 9.484375 0.640625 Z M 10.0625 -23.5625 L 10.125 0 L 25.875 0 L 25.8125 -24.40625 L 33.171875 -24.40625 L 33.171875 -41.625 L 1.671875 -41.625 L 1.671875 -24.34375 C 2.265625 -24.34375 3.125 -24.351562 4.25 -24.375 C 5.382812 -24.394531 6.613281 -24.507812 7.9375 -24.71875 C 9.257812 -24.9375 10.519531 -25.332031 11.71875 -25.90625 C 12.914062 -26.476562 13.894531 -27.320312 14.65625 -28.4375 C 15.425781 -29.550781 15.789062 -31.023438 15.75 -32.859375 C 15.707031 -34.609375 15.332031 -35.929688 14.625 -36.828125 C 13.925781 -37.722656 13.046875 -38.46875 11.984375 -39.0625 L 12.234375 -39.765625 C 14.578125 -39.390625 16.347656 -38.625 17.546875 -37.46875 C 18.742188 -36.3125 19.425781 -34.972656 19.59375 -33.453125 C 19.769531 -31.941406 19.503906 -30.445312 18.796875 -28.96875 C 18.085938 -27.5 16.984375 -26.265625 15.484375 -25.265625 C 13.992188 -24.265625 12.1875 -23.695312 10.0625 -23.5625 Z M 19.015625 -32.53125 C 19.015625 -33.8125 18.632812 -34.988281 17.875 -36.0625 C 17.144531 -36.613281 16.179688 -37.082031 14.984375 -37.46875 L 14.984375 -37.40625 C 15.796875 -36.800781 16.4375 -36.039062 16.90625 -35.125 C 17.375 -34.207031 17.628906 -33.023438 17.671875 -31.578125 C 17.671875 -30.640625 17.585938 -29.804688 17.421875 -29.078125 C 17.253906 -28.347656 17 -27.6875 16.65625 -27.09375 C 18.226562 -28.757812 19.015625 -30.570312 19.015625 -32.53125 Z M 19.015625 -32.53125 "/></g></g></g></svg>